<svg width="24.000000" height="24.000000" viewBox="0 0 24 24" fill="none" xmlns="http://www.w3.org/2000/svg" xmlns:xlink="http://www.w3.org/1999/xlink">

	<defs>
		<clipPath id="clip296_29">
			<rect id="Icon" rx="0.000000" width="23.000000" height="23.000000" transform="translate(0.500000 0.500000)" fill="white" fill-opacity="0"/>
		</clipPath>
	</defs>
	<g clip-path="url(#clip296_29)">
		<path id="Union (Stroke)" d="M11.64 20.91L11.64 20.91C11.86 21.02 12.13 21.02 12.35 20.91L12.35 20.91L12.36 20.9L12.38 20.89C12.4 20.88 12.43 20.86 12.46 20.84C12.53 20.81 12.63 20.75 12.76 20.67C13.02 20.52 13.38 20.3 13.82 20.01C14.68 19.43 15.84 18.59 17.01 17.5C19.31 15.36 21.75 12.17 21.75 8.25C21.75 5.32 19.28 3 16.31 3C14.56 3 12.99 3.79 12 5.05C11 3.79 9.43 3 7.68 3C4.71 3 2.25 5.32 2.25 8.25C2.25 12.17 4.68 15.36 6.98 17.5C8.15 18.59 9.31 19.43 10.17 20.01C10.61 20.3 10.97 20.52 11.23 20.67C11.36 20.75 11.46 20.81 11.53 20.84C11.56 20.86 11.59 20.88 11.61 20.89L11.63 20.9L11.64 20.91Z" stroke="#666666" stroke-opacity="1.000000" stroke-width="1.500000" stroke-linejoin="round"/>
	</g>
</svg>
