<svg width="64.000000" height="64.000000" viewBox="0 0 64 64" fill="none" xmlns="http://www.w3.org/2000/svg" xmlns:xlink="http://www.w3.org/1999/xlink">
	<desc>
			Created with Pixso.
	</desc>
	<defs/>
	<path id="Subtract" d="M46 46C56.67 43.43 64 38.12 64 32C64 25.87 56.67 20.56 46 18C47.09 22.21 47.71 26.96 47.71 32C47.71 37.03 47.09 41.78 46 46Z" fill="#404040" fill-opacity="1.000000" fill-rule="evenodd"/>
	<path id="Subtract" d="M18 46C7.32 43.43 0 38.12 0 32C0 25.87 7.32 20.56 18 18C16.9 22.21 16.28 26.96 16.28 32C16.28 37.03 16.9 41.78 18 46Z" fill="#404040" fill-opacity="1.000000" fill-rule="evenodd"/>
	<path id="Subtract" d="M18 46C20.56 56.67 25.87 64 32 64C38.12 64 43.43 56.67 46 46C41.78 47.09 37.03 47.71 32 47.71C26.96 47.71 22.21 47.09 18 46Z" fill="#FFD11A" fill-opacity="1.000000" fill-rule="evenodd"/>
	<path id="Subtract" d="M18 18C20.56 7.32 25.87 0 32 0C38.12 0 43.43 7.32 46 18C41.78 16.9 37.03 16.28 32 16.28C26.96 16.28 22.21 16.9 18 18Z" fill="#FFD11A" fill-opacity="1.000000" fill-rule="evenodd"/>
</svg>
